<svg width="32" height="32" viewBox="0 0 32 32" fill="none" xmlns="http://www.w3.org/2000/svg">
<g clip-path="url(#clip0_9961_15)">
<path d="M16.1961 19.2631V23.17C16.1961 23.3541 16.1961 23.3541 16.0572 23.2562C15.1302 22.694 14.2033 22.1416 13.2753 21.5784C12.2846 20.9839 11.293 20.4031 10.3014 19.8155C10.2485 19.7889 10.2049 19.7464 10.1765 19.6939C10.148 19.6414 10.1361 19.5813 10.1422 19.5217V3.70035C10.1373 3.65877 10.1437 3.61659 10.1607 3.57843C10.1777 3.54027 10.2047 3.50757 10.2387 3.48388C12.1679 2.35822 14.0901 1.2218 16.0051 0.0745829C16.2077 -0.0439254 16.2077 -0.0331548 16.2077 0.194068V7.66107C16.2077 7.70416 16.1865 7.76978 16.2289 7.8021C16.2714 7.83442 16.3138 7.76977 16.3466 7.74823C18.3076 6.48185 20.2581 5.22625 22.2085 3.9491C22.3899 3.84137 22.4979 3.82963 22.6773 3.93834C24.6927 5.18349 26.7039 6.41723 28.711 7.63953C28.8489 7.72571 28.8489 7.72571 28.711 7.83541C26.8242 9.03616 24.9268 10.2487 23.04 11.4504C22.9117 11.5366 22.9117 11.5366 23.04 11.6463L29.1479 16.0291C29.1919 16.0549 29.2275 16.0933 29.2501 16.1394C29.2727 16.1856 29.2815 16.2375 29.2753 16.2887C29.2753 18.0849 29.2647 19.8713 29.2647 21.6676C29.2647 22.36 29.2646 23.0525 29.2753 23.7449C29.2772 23.7899 29.2675 23.8345 29.247 23.8744C29.2265 23.9143 29.196 23.948 29.1585 23.9721C29.009 24.0485 28.8692 24.2434 28.7216 24.2326C28.574 24.2219 28.4322 24.0485 28.3058 23.9506C26.7171 22.8037 25.1506 21.6353 23.5619 20.4874C21.9105 19.2974 20.2475 18.0957 18.6057 16.9057C17.8495 16.3533 17.0922 15.8127 16.3244 15.2603C16.2926 15.2388 16.2608 15.1849 16.2183 15.2064C16.1759 15.228 16.1971 15.2818 16.1971 15.3249L16.1961 19.2631Z" fill="#FF0000"/>
<path d="M3.00249 15.8498V7.92735C2.99606 7.87478 3.00601 7.82149 3.03092 7.77494C3.05583 7.72839 3.09447 7.69091 3.14142 7.66779C4.67611 6.76968 6.2214 5.87157 7.75609 4.96268C8.05512 4.8001 8.34259 4.61598 8.64065 4.4534C8.68406 4.43185 8.73711 4.37798 8.77955 4.39952C8.82199 4.42107 8.80077 4.49747 8.80077 4.55134V20.2219C8.79564 20.2815 8.80813 20.3412 8.83666 20.3936C8.86518 20.4459 8.90844 20.4884 8.96088 20.5157C10.9325 21.7053 12.8975 22.9028 14.8556 24.1081C15.3032 24.3892 15.7614 24.6605 16.2061 24.9308C16.2358 24.9519 16.2711 24.9633 16.3074 24.9633C16.3436 24.9633 16.3789 24.9519 16.4086 24.9308C17.8266 24.0866 19.2542 23.2316 20.6722 22.3844C21.2799 22.0269 21.877 21.6704 22.4838 21.3021C22.5696 21.2483 22.6227 21.2806 22.6969 21.3345C23.4541 21.8976 24.1998 22.449 24.9676 23.0122C25.8203 23.6508 26.6943 24.2854 27.547 24.9064C27.6859 25.0043 27.6859 25.0141 27.5364 25.1228C25.5541 26.3343 23.593 27.5468 21.6098 28.7593C19.8735 29.8197 18.1372 30.8837 16.4009 31.9512C16.3555 31.9833 16.3015 32.0006 16.2461 32.0006C16.1908 32.0006 16.1367 31.9833 16.0913 31.9512C14.2585 30.8259 12.4036 29.7113 10.5699 28.5752C9.01395 27.6223 7.45803 26.6918 5.90211 25.7349C4.98477 25.1826 4.08962 24.6312 3.16263 24.0895C3.10805 24.0625 3.06321 24.0188 3.03447 23.9645C3.00574 23.9101 2.99454 23.848 3.00249 23.7869V15.8429V15.8498Z" fill="#FF0000"/>
</g>
<defs>
<clipPath id="clip0_9961_15">
<rect width="32" height="32" fill="white"/>
</clipPath>
</defs>
</svg>
